<svg width="17.000000" height="19.000000" viewBox="0 0 17 19" fill="none"
    xmlns="http://www.w3.org/2000/svg" xmlns:xlink="http://www.w3.org/1999/xlink">
    <defs />
    <path id="Vector"
        d="M7.99 -0.61C5.34 -0.61 3.19 1.54 3.19 4.19L3.19 5.39L1.99 5.39C1.38 5.39 0.87 5.85 0.8 6.46L-0.4 17.26C-0.43 17.6 -0.33 17.94 -0.1 18.2C0.13 18.45 0.45 18.6 0.79 18.6L15.2 18.6C15.54 18.6 15.86 18.45 16.09 18.2C16.32 17.94 16.42 17.6 16.39 17.26L15.19 6.46C15.12 5.85 14.61 5.39 13.99 5.39L12.8 5.39L12.8 4.19C12.8 1.54 10.65 -0.61 7.99 -0.61ZM10.4 5.39L10.4 4.19C10.4 2.87 9.32 1.79 7.99 1.79C6.67 1.79 5.59 2.87 5.59 4.19L5.59 5.39L10.4 5.39ZM3.19 9C3.19 8.33 3.73 7.79 4.39 7.79C5.06 7.79 5.59 8.33 5.59 9C5.59 9.66 5.06 10.2 4.39 10.2C3.73 10.2 3.19 9.66 3.19 9ZM11.6 7.79C10.93 7.79 10.4 8.33 10.4 9C10.4 9.66 10.93 10.2 11.6 10.2C12.26 10.2 12.8 9.66 12.8 9C12.8 8.33 12.26 7.79 11.6 7.79Z"
        fill="#111827" fill-opacity="1.000000" fill-rule="evenodd" />
</svg>