<svg width="20.000000" height="18.000000" viewBox="0 0 20 18" fill="none"
    xmlns="http://www.w3.org/2000/svg" xmlns:xlink="http://www.w3.org/1999/xlink">
    <defs />
    <path id="Vector"
        d="M5 1L5 17M15 1L15 17M1 5L5 5M15 5L19 5M1 9L19 9M1 13L5 13M15 13L19 13M18 17C18.26 17 18.51 16.89 18.7 16.7C18.89 16.51 19 16.26 19 16L19 2C19 1.73 18.89 1.48 18.7 1.29C18.51 1.1 18.26 1 18 1L2 1C1.73 1 1.48 1.1 1.29 1.29C1.1 1.48 1 1.73 1 2L1 16C1 16.26 1.1 16.51 1.29 16.7C1.48 16.89 1.73 17 2 17L18 17Z"
        stroke="#000000" stroke-opacity="1.000000" stroke-width="2.000000" stroke-linejoin="round" />
</svg>