<svg width="14.000000" height="18.000000" viewBox="0 0 14 18" fill="none"
    xmlns="http://www.w3.org/2000/svg">
    <defs />
    <path id="Vector"
        d="M13.22 8.5C13.22 9.54 12.81 10.54 12.07 11.28L6.71 16.64C6.62 16.73 6.53 16.81 6.43 16.89C6.2 17.08 5.94 17.25 5.68 17.38C5.13 17.65 4.53 17.79 3.93 17.79C2.92 17.79 1.91 17.4 1.15 16.63C-0.39 15.1 -0.39 12.61 1.15 11.07L3.72 8.5L1.15 5.92C-0.39 4.38 -0.39 1.89 1.15 0.35C2.37 -0.87 4.21 -1.12 5.68 -0.39C5.94 -0.26 6.2 -0.09 6.44 0.1C6.53 0.18 6.62 0.27 6.71 0.35L6.93 0.57L12.07 5.71C12.81 6.45 13.22 7.45 13.22 8.5Z"
        fill="#1F2937" fill-opacity="1.000000" fill-rule="nonzero" />
    <path id="Vector"
        d="M13.22 8.5C13.22 9.54 12.81 10.54 12.07 11.28L6.71 16.64C6.62 16.73 6.53 16.81 6.43 16.89C6.2 17.08 5.94 17.25 5.68 17.38C5.3 17.19 4.95 16.95 4.64 16.63C3.11 15.1 3.11 12.61 4.64 11.07L7.22 8.5L4.64 5.92C3.11 4.38 3.11 1.89 4.64 0.35C4.95 0.04 5.3 -0.2 5.68 -0.39C5.94 -0.26 6.2 -0.09 6.44 0.1C6.53 0.18 6.62 0.27 6.71 0.35L6.93 0.57L12.07 5.71C12.81 6.45 13.22 7.45 13.22 8.5Z"
        fill="#1F2937" fill-opacity="1.000000" fill-rule="nonzero" />
</svg>