<svg width="16.000000" height="16.000000" viewBox="0 0 16 16" fill="none"
    xmlns="http://www.w3.org/2000/svg">

    <defs />
    <path id="Vector"
        d="M6 1.5C4.93 1.5 3.92 1.92 3.17 2.67C2.42 3.42 2 4.43 2 5.5C2 6.56 2.42 7.57 3.17 8.32C3.92 9.07 4.93 9.5 6 9.5C7.06 9.5 8.07 9.07 8.82 8.32C9.57 7.57 10 6.56 10 5.5C10 4.43 9.57 3.42 8.82 2.67C8.07 1.92 7.06 1.5 6 1.5ZM0 5.5C0 4.55 0.22 3.62 0.65 2.78C1.07 1.94 1.69 1.21 2.46 0.65C3.22 0.09 4.1 -0.28 5.03 -0.43C5.97 -0.58 6.92 -0.51 7.82 -0.22C8.72 0.07 9.54 0.56 10.21 1.22C10.88 1.89 11.39 2.7 11.69 3.6C11.99 4.49 12.07 5.45 11.93 6.38C11.79 7.31 11.43 8.2 10.88 8.97L15.7 13.79C15.88 13.98 15.99 14.23 15.98 14.49C15.98 14.75 15.88 15 15.69 15.19C15.5 15.38 15.25 15.48 14.99 15.48C14.73 15.49 14.48 15.38 14.29 15.2L9.47 10.39C8.57 11.02 7.52 11.4 6.42 11.48C5.32 11.56 4.22 11.33 3.24 10.83C2.26 10.32 1.44 9.56 0.87 8.62C0.3 7.68 -0.01 6.6 0 5.5Z"
        fill="#6B7280" fill-opacity="1.000000" fill-rule="evenodd" />
</svg>